<?xml version="1.0" encoding="iso-8859-1"?>
<!-- Generator: Adobe Illustrator 19.0.0, SVG Export Plug-In . SVG Version: 6.00 Build 0)  -->
<svg version="1.1" id="Capa_1" xmlns="http://www.w3.org/2000/svg" xmlns:xlink="http://www.w3.org/1999/xlink" x="0px" y="0px"
	 viewBox="0 0 512 512" style="enable-background:new 0 0 512 512;" xml:space="preserve">
<g>
	<g>
		<g>
			<path d="M480,112h-32V80c0-17.673-14.327-32-32-32H256V32c0-8.837-7.163-16-16-16H16C7.163,16,0,23.163,0,32v432
				c0,17.673,14.327,32,32,32h224v-32H32V48h192v64H80v32h400v96h32v-96C512,126.327,497.673,112,480,112z M416,112H256V80h160V112z
				"/>
			<path d="M384,272c-61.856,0-112,50.144-112,112s50.144,112,112,112s112-50.144,112-112S445.856,272,384,272z M304,384
				c0.051-44.183,35.91-79.958,80.093-79.907c15.609,0.018,30.871,4.602,43.907,13.187L317.28,428
				C308.645,414.948,304.028,399.65,304,384z M427.907,450.813C414.871,459.398,399.609,463.982,384,464
				c-15.65-0.028-30.948-4.645-44-13.28L450.72,340C475.021,376.9,464.807,426.513,427.907,450.813z"/>
		</g>
	</g>
</g>
<g>
</g>
<g>
</g>
<g>
</g>
<g>
</g>
<g>
</g>
<g>
</g>
<g>
</g>
<g>
</g>
<g>
</g>
<g>
</g>
<g>
</g>
<g>
</g>
<g>
</g>
<g>
</g>
<g>
</g>
</svg>
