<?xml version="1.0" encoding="utf-8"?>
<!-- Generator: Adobe Illustrator 16.0.0, SVG Export Plug-In . SVG Version: 6.00 Build 0)  -->
<!DOCTYPE svg PUBLIC "-//W3C//DTD SVG 1.1//EN" "http://www.w3.org/Graphics/SVG/1.1/DTD/svg11.dtd">
<svg version="1.1" xmlns="http://www.w3.org/2000/svg" xmlns:xlink="http://www.w3.org/1999/xlink" x="0px" y="0px" width="512px"
	 height="512px" viewBox="0 0 512 512" enable-background="new 0 0 512 512" xml:space="preserve">
<g id="Capa_2">
</g>
<g id="Capa_1">
	<path fill="#607D8B" d="M342.762,505.237c-17.041,3.783-34.744,5.763-52.898,5.763C152.791,511,41.68,398.329,41.68,259.347
		c0-126.836,92.539-236.382,212.882-253.737l-1.145,0.938l2.152,16.485C160.981,43.304,90.275,124.318,90.275,221.164
		c0,112.149,94.795,203.06,211.735,203.06c8.747,0,17.358-0.522,25.83-1.492L342.762,505.237z"/>
	<path fill="#FF7043" d="M295.069,35.459c-101.599,0-183.968,80.809-183.968,180.498c0,99.691,82.37,180.497,183.968,180.497
		S479.04,315.648,479.04,215.957C479.04,116.268,396.668,35.459,295.069,35.459 M293.334,351.329
		c-85.319,0-154.465-66.052-154.465-147.521c0-81.466,69.146-147.521,154.465-147.521c85.32,0,154.463,66.056,154.463,147.521
		C447.797,285.277,378.654,351.329,293.334,351.329"/>
	<g>
		<path d="M274.625,272.628h-29.672V124.37h59.344c5.445,0,10.684,0.708,15.715,2.12c5.031,1.414,9.736,3.412,14.113,5.997
			c4.377,2.584,8.375,5.686,11.992,9.305c3.619,3.619,6.721,7.634,9.305,12.044c2.586,4.412,4.584,9.134,5.998,14.164
			c1.412,5.032,2.119,10.271,2.119,15.715c0,8.133-1.551,15.802-4.652,23.003c-3.102,7.203-7.342,13.492-12.717,18.868
			c-5.377,5.376-11.666,9.615-18.869,12.717s-14.871,4.652-23.004,4.652h-29.672V272.628z M274.625,154.042v59.344h29.672
			c4.066,0,7.893-0.775,11.477-2.326s6.721-3.67,9.408-6.358s4.809-5.841,6.359-9.46s2.326-7.46,2.326-11.527
			c0-4.066-0.775-7.909-2.326-11.528s-3.672-6.772-6.359-9.46s-5.824-4.808-9.408-6.358s-7.41-2.326-11.477-2.326H274.625z"/>
	</g>
	<g>
	</g>
	<g>
	</g>
	<g>
	</g>
	<g>
	</g>
	<g>
	</g>
	<g>
	</g>
	<g>
	</g>
	<g>
	</g>
	<g>
	</g>
	<g>
	</g>
	<g>
	</g>
	<g>
	</g>
	<g>
	</g>
	<g>
	</g>
	<g>
	</g>
</g>
</svg>
